<?xml version="1.0" encoding="UTF-8" standalone="no"?>
<svg
   width="128"
   height="128"
   viewBox="0 0 128 128"
   version="1.1"
   xmlns="http://www.w3.org/2000/svg">
  <circle
     cx="64"
     cy="64"
     r="60"
     fill="#0084ff" />
  <g
     fill="white"
     transform="translate(32, 32)">
    <!-- Microphone -->
    <rect
       x="28"
       y="8"
       width="8"
       height="24"
       rx="4" />
    <path
       d="M 20,28 C 20,34.6 25.4,40 32,40 38.6,40 44,34.6 44,28 L 40,28 C 40,32.4 36.4,36 32,36 27.6,36 24,32.4 24,28 Z" />
    <rect
       x="30"
       y="40"
       width="4"
       height="8" />
    <rect
       x="20"
       y="48"
       width="24"
       height="4" />
    <!-- Download arrow -->
    <path
       d="M 32,12 32,32 26,26 22,30 32,40 42,30 38,26 32,32 32,12 Z"
       fill="#0084ff" />
  </g>
</svg>
